<svg xmlns="http://www.w3.org/2000/svg" width="500" viewBox="0 0 375 374.999991" height="500" version="1.0"><defs><clipPath id="a"><path d="M28 138.261719h22V167H28Zm0 0"/></clipPath><clipPath id="b"><path d="M11.527344 202.964844h72.59375v14.046875h-72.59375Zm0 0"/></clipPath><clipPath id="c"><path d="M47.945312 217.011719h-.246093C27.710938 217 11.527344 213.859375 11.527344 209.988281c0-3.878906 16.25-7.023437 36.296875-7.023437s36.296875 3.144531 36.296875 7.023437c0 3.871094-16.1875 7.011719-36.175782 7.023438"/></clipPath><clipPath id="d"><path d="M47.945312 217.011719h-.246093C27.710938 217 11.527344 213.859375 11.527344 209.988281c0-3.878906 16.25-7.023437 36.296875-7.023437s36.296875 3.144531 36.296875 7.023437c0 3.871094-16.1875 7.011719-36.175782 7.023438"/></clipPath><clipPath id="f"><path d="M246 18h123.65625v178H246Zm0 0"/></clipPath><clipPath id="g"><path d="M222 203h147.65625v164H222Zm0 0"/></clipPath><radialGradient gradientTransform="matrix(-1.77588 0 0 .22412 48.661391 210.289995)" gradientUnits="userSpaceOnUse" r="16.951457" cx="0" id="e" cy="0" fx="0" fy="0"><stop stop-color="#A8A6A6" offset="0"/><stop stop-color="#A8A6A7" offset=".0078125"/><stop stop-color="#A9A7A7" offset=".0117188"/><stop stop-color="#A9A7A8" offset=".015625"/><stop stop-color="#A9A8A8" offset=".0195312"/><stop stop-color="#A9A8A8" offset=".0234375"/><stop stop-color="#AAA8A9" offset=".0273438"/><stop stop-color="#AAA9A9" offset=".03125"/><stop stop-color="#ABA9A9" offset=".0351562"/><stop stop-color="#ABA9AA" offset=".0390625"/><stop stop-color="#ACAAAA" offset=".0429688"/><stop stop-color="#ACAAAA" offset=".046875"/><stop stop-color="#ACABAB" offset=".0507812"/><stop stop-color="#ADABAC" offset=".0625"/><stop stop-color="#ADACAC" offset=".0664062"/><stop stop-color="#ADADAD" offset=".0703125"/><stop stop-color="#AEADAD" offset=".0820312"/><stop stop-color="#AFADAE" offset=".0859375"/><stop stop-color="#AFAEAE" offset=".0898438"/><stop stop-color="#B0AEAF" offset=".09375"/><stop stop-color="#B0AEAF" offset=".0976562"/><stop stop-color="#B0AFAF" offset=".101562"/><stop stop-color="#B1AFAF" offset=".105469"/><stop stop-color="#B1AFAF" offset=".109375"/><stop stop-color="#B1B0B0" offset=".113281"/><stop stop-color="#B2B0B0" offset=".117188"/><stop stop-color="#B2B0B1" offset=".121094"/><stop stop-color="#B3B1B2" offset=".132812"/><stop stop-color="#B3B1B2" offset=".136719"/><stop stop-color="#B3B2B2" offset=".140625"/><stop stop-color="#B4B2B2" offset=".144531"/><stop stop-color="#B4B3B3" offset=".148438"/><stop stop-color="#B5B3B4" offset=".152344"/><stop stop-color="#B5B4B4" offset=".15625"/><stop stop-color="#B6B4B5" offset=".160156"/><stop stop-color="#B6B5B5" offset=".164062"/><stop stop-color="#B6B5B5" offset=".167969"/><stop stop-color="#B7B6B6" offset=".171875"/><stop stop-color="#B7B6B6" offset=".175781"/><stop stop-color="#B8B6B7" offset=".179688"/><stop stop-color="#B8B7B7" offset=".183594"/><stop stop-color="#B8B7B7" offset=".1875"/><stop stop-color="#B9B8B8" offset=".191406"/><stop stop-color="#B9B8B8" offset=".203125"/><stop stop-color="#B9B8B8" offset=".207031"/><stop stop-color="#BAB9B9" offset=".210938"/><stop stop-color="#BAB9B9" offset=".214844"/><stop stop-color="#BBBABA" offset=".21875"/><stop stop-color="#BCBABB" offset=".222656"/><stop stop-color="#BCBABB" offset=".234375"/><stop stop-color="#BCBBBB" offset=".238281"/><stop stop-color="#BCBBBB" offset=".242188"/><stop stop-color="#BDBCBC" offset=".246094"/><stop stop-color="#BDBCBC" offset=".25"/><stop stop-color="#BEBDBD" offset=".253906"/><stop stop-color="#BFBEBE" offset=".257812"/><stop stop-color="#BFBEBE" offset=".265625"/><stop stop-color="#C0BFBF" offset=".273438"/><stop stop-color="#C0BFC0" offset=".277344"/><stop stop-color="#C1C0C0" offset=".285156"/><stop stop-color="#C2C1C1" offset=".292969"/><stop stop-color="#C2C1C2" offset=".300781"/><stop stop-color="#C2C1C2" offset=".308594"/><stop stop-color="#C3C2C2" offset=".3125"/><stop stop-color="#C4C3C3" offset=".316406"/><stop stop-color="#C5C4C4" offset=".324219"/><stop stop-color="#C5C4C5" offset=".332031"/><stop stop-color="#C5C5C5" offset=".339844"/><stop stop-color="#C6C5C5" offset=".347656"/><stop stop-color="#C7C6C6" offset=".351562"/><stop stop-color="#C7C6C6" offset=".359375"/><stop stop-color="#C8C7C7" offset=".367188"/><stop stop-color="#C9C8C8" offset=".375"/><stop stop-color="#C9C8C8" offset=".382812"/><stop stop-color="#CAC9C9" offset=".390625"/><stop stop-color="#CAC9C9" offset=".394531"/><stop stop-color="#CBCACA" offset=".398438"/><stop stop-color="#CBCACA" offset=".402344"/><stop stop-color="#CBCACB" offset=".410156"/><stop stop-color="#CCCBCC" offset=".417969"/><stop stop-color="#CDCCCC" offset=".425781"/><stop stop-color="#CDCDCD" offset=".433594"/><stop stop-color="#CECDCD" offset=".4375"/><stop stop-color="#CFCECE" offset=".441406"/><stop stop-color="#CFCFCF" offset=".449219"/><stop stop-color="#D0CFCF" offset=".457031"/><stop stop-color="#D1D0D0" offset=".464844"/><stop stop-color="#D1D0D0" offset=".472656"/><stop stop-color="#D1D0D1" offset=".476562"/><stop stop-color="#D2D1D2" offset=".480469"/><stop stop-color="#D3D2D2" offset=".488281"/><stop stop-color="#D3D2D2" offset=".496094"/><stop stop-color="#D4D3D3" offset=".503906"/><stop stop-color="#D4D3D3" offset=".507812"/><stop stop-color="#D4D4D4" offset=".511719"/><stop stop-color="#D5D4D4" offset=".515625"/><stop stop-color="#D5D5D5" offset=".519531"/><stop stop-color="#D6D5D5" offset=".523438"/><stop stop-color="#D6D6D6" offset=".535156"/><stop stop-color="#D7D7D7" offset=".546875"/><stop stop-color="#D8D7D7" offset=".550781"/><stop stop-color="#D8D8D8" offset=".554688"/><stop stop-color="#D8D8D8" offset=".558594"/><stop stop-color="#D9D8D8" offset=".5625"/><stop stop-color="#D9D8D9" offset=".566406"/><stop stop-color="#DAD9D9" offset=".570312"/><stop stop-color="#DAD9D9" offset=".574219"/><stop stop-color="#DADADA" offset=".578125"/><stop stop-color="#DBDADA" offset=".582031"/><stop stop-color="#DBDBDB" offset=".585938"/><stop stop-color="#DCDBDB" offset=".589844"/><stop stop-color="#DCDBDC" offset=".59375"/><stop stop-color="#DDDBDC" offset=".597656"/><stop stop-color="#DDDCDC" offset=".601562"/><stop stop-color="#DDD" offset=".605469"/><stop stop-color="#DEDDDD" offset=".617188"/><stop stop-color="#DEDEDE" offset=".621094"/><stop stop-color="#DFDEDE" offset=".625"/><stop stop-color="#DFDFDF" offset=".628906"/><stop stop-color="#DFDFDF" offset=".636719"/><stop stop-color="#E0DFDF" offset=".644531"/><stop stop-color="#E1E0E0" offset=".648438"/><stop stop-color="#E1E1E1" offset=".65625"/><stop stop-color="#E2E2E2" offset=".664062"/><stop stop-color="#E3E3E3" offset=".671875"/><stop stop-color="#E4E3E3" offset=".679688"/><stop stop-color="#E4E4E4" offset=".6875"/><stop stop-color="#E5E4E4" offset=".695312"/><stop stop-color="#E6E5E5" offset=".703125"/><stop stop-color="#E6E6E6" offset=".710938"/><stop stop-color="#E7E6E6" offset=".71875"/><stop stop-color="#E7E7E7" offset=".726562"/><stop stop-color="#E8E8E8" offset=".730469"/><stop stop-color="#E9E9E9" offset=".738281"/><stop stop-color="#EAE9E9" offset=".746094"/><stop stop-color="#EAEAEA" offset=".753906"/><stop stop-color="#EAEAEA" offset=".757812"/><stop stop-color="#EBEBEB" offset=".761719"/><stop stop-color="#ECEBEB" offset=".773438"/><stop stop-color="#ECECEC" offset=".785156"/><stop stop-color="#EDECEC" offset=".789062"/><stop stop-color="#EDEDED" offset=".792969"/><stop stop-color="#EEEDED" offset=".804688"/><stop stop-color="#EEE" offset=".808594"/><stop stop-color="#EEE" offset=".8125"/><stop stop-color="#EFEFEF" offset=".816406"/><stop stop-color="#F0EFF0" offset=".824219"/><stop stop-color="#F1F0F0" offset=".832031"/><stop stop-color="#F1F1F1" offset=".839844"/><stop stop-color="#F2F2F2" offset=".847656"/><stop stop-color="#F3F3F3" offset=".851562"/><stop stop-color="#F3F3F3" offset=".859375"/><stop stop-color="#F4F4F4" offset=".867188"/><stop stop-color="#F5F5F5" offset=".875"/><stop stop-color="#F6F5F6" offset=".882812"/><stop stop-color="#F6F5F6" offset=".886719"/><stop stop-color="#F6F6F6" offset=".890625"/><stop stop-color="#F7F7F7" offset=".902344"/><stop stop-color="#F7F7F7" offset=".90625"/><stop stop-color="#F8F8F8" offset=".910156"/><stop stop-color="#F8F8F8" offset=".917969"/><stop stop-color="#F9F9F9" offset=".925781"/><stop stop-color="#FAFAFA" offset=".933594"/><stop stop-color="#FBFBFB" offset=".949219"/><stop stop-color="#FBFBFB" offset=".953125"/><stop stop-color="#FCFCFC" offset=".964844"/><stop stop-color="#FDFDFD" offset=".972656"/><stop stop-color="#FDFDFD" offset=".976562"/><stop stop-color="#FEFEFE" offset=".980469"/><stop stop-color="#FFF" offset=".988281"/><stop stop-color="#FFF" offset="1"/></radialGradient></defs><path fill="#1c6434" d="M74.675781 182.421875c.261719-.199219.496094-.425781.707031-.675781.207032-.253906.402344-.519532.5625-.804688.65625-1.148437.890626-2.527344.8125-3.867187-.035156-.671875-.144531-1.339844-.304687-1.988281-.074219-.324219-.171875-.640626-.273437-.957032-.054688-.15625-.105469-.3125-.160157-.46875-.058593-.148437-.117187-.296875-.171875-.445312l-.046875-.113282-.050781-.117187c-.03125-.078125-.066406-.15625-.101562-.238281-.03125-.078125-.066407-.15625-.101563-.234375l-.09375-.203125c-.132813-.292969-.277344-.578125-.425781-.855469-.054688-.101563-.109375-.199219-.164063-.296875-.386719-16.097656-17.40625-14.867188-17.40625-14.867188l.003907.003907-.003907-.003907c.011719.015626 1.125 1.71875 2.652344 6.078126 2.988281 8.542968 9.734375 9.027343 13.8125 11.234374-1.976563-5.585937-11.371094-13.820312-11.371094-13.820312s8.714844 5.566406 11.925781 12.046875l.042969.101563c.03125.082031.0625.160156.09375.238281.03125.082031.066407.160156.097657.238281l.050781.121094.039062.109375c.054688.152343.109375.300781.160157.453125.050781.15625.101562.3125.152343.472656.09375.316406.179688.636719.25.964844.144531.652344.238281 1.320312.257813 1.992187.046875 1.34375-.21875 2.714844-.902344 3.847657-.167969.28125-.367188.542968-.582031.789062-.214844.246094-.457031.46875-.71875.660156-.261719.195313-.542969.363282-.839844.503906-.296875.136719-.609375.242188-.933594.3125-.644531.152344-1.328125.152344-2.003906.039063-.492187-.089844-.976563-.246094-1.449219-.464844.242188.167969.484375.332031.738282.464844.636718.351563 1.3125.585937 1.992187.695313.679687.097656 1.363281.078124 2.003906-.085938.320313-.082031.628907-.191406.925781-.335938.292969-.148437.570313-.324218.824219-.523437"/><path fill="#80cc28" d="M49.492188 198.953125c.300781.125.617187.214844.9375.273437.320312.058594.644531.09375.972656.089844 1.320312-.003906 2.625-.488281 3.742187-1.226562.5625-.367188 1.082031-.796875 1.5625-1.257813.242188-.230469.46875-.472656.691407-.71875.105468-.125.214843-.25.320312-.375.101562-.125.203125-.25.300781-.371093l.074219-.09375.078125-.105469c.050781-.070313.101563-.136719.152344-.207031.050781-.066407.101562-.136719.148437-.203126l.132813-.1875c.183593-.261718.359375-.527343.523437-.796874.0625-.097657.117188-.195313.175782-.289063 13.691406-8.386719 4.121093-22.570313 4.121093-22.570313v.003907l-.003906.003906v-.003906c-.007813.015625-.917969 1.835937-3.914063 5.339843-5.875 6.875-2.917968 12.976563-2.78125 17.628907 3.824219-4.511719 6.230469-16.796875 6.230469-16.796875s-.441406 10.363281-4.429687 16.390625l-.066406.089843c-.050782.066407-.105469.136719-.15625.203126-.050782.066406-.105469.136718-.15625.203124l-.078126.101563-.078124.089844c-.101563.121093-.203126.246093-.308594.367187-.109375.121094-.21875.246094-.332032.367188-.226562.238281-.457031.476562-.707031.703125-.488281.449219-1.019531.863281-1.589843 1.21875-1.132813.710937-2.453126 1.167969-3.769532 1.136719-.328125-.003907-.652344-.046876-.972656-.109376-.320312-.066406-.632812-.164062-.929688-.296874-.296874-.128907-.582031-.289063-.851562-.476563-.269531-.191406-.515625-.410156-.738281-.65625-.453125-.484375-.796875-1.078125-1.035157-1.722656-.167968-.472657-.277343-.972657-.324218-1.492188-.027344.292969-.042969.589844-.03125.875.015625.730469.152344 1.433594.398437 2.078125.253907.640625.613281 1.226563 1.074219 1.699219.230469.238281.480469.453125.753906.636719.269532.183594.5625.335937.863282.457031"/><path fill="#1c6434" d="M22.636719 185.324219c.042969.320312.125.640625.234375.949219.109375.308593.242187.609374.410156.890624.660156 1.144532 1.734375 2.039063 2.929688 2.640626.597656.304687 1.226562.542968 1.863281.730468.320312.09375.644531.171875.964843.242188.164063.03125.324219.0625.488282.09375.15625.023437.3125.046875.46875.070312l.117187.019532.128907.015624c.085937.007813.171874.019532.253906.027344.085937.011719.171875.019532.253906.03125l.226562.019532c.316407.03125.636719.046874.949219.058593.113281 0 .226563.003907.339844.003907 14.074219 7.710937 21.523437-7.699219 21.523437-7.699219h-.003906.003906c-.015624 0-2.042968.117187-6.566406-.734375-8.867187-1.671875-12.652344 3.949218-16.597656 6.394531 5.804688 1.070313 17.605469-2.980469 17.605469-2.980469s-9.160157 4.792969-16.351563 4.34375l-.113281-.011718c-.082031-.011719-.167969-.023438-.25-.035157-.085937-.011719-.171875-.023437-.253906-.035156l-.128907-.015625-.117187-.023438c-.15625-.027343-.3125-.054687-.46875-.082031-.160156-.035156-.320313-.070312-.484375-.105469-.320312-.078124-.640625-.164062-.957031-.265624-.632813-.199219-1.257813-.453126-1.847657-.773438-1.179687-.628906-2.234374-1.546875-2.867187-2.707031-.160156-.289063-.285156-.59375-.390625-.902344-.101562-.308594-.175781-.628906-.210938-.957031-.035156-.324219-.039062-.652344-.011718-.980469.03125-.324219.097656-.648437.195312-.96875.191406-.632813.53125-1.230469.96875-1.761719.324219-.378906.703125-.726562 1.125-1.027344-.265625.125-.527344.257813-.769531.410157-.621094.378906-1.164063.847656-1.59375 1.386719-.425781.539062-.75 1.144531-.929687 1.785156-.089844.316406-.148438.644531-.171876.972656-.019531.328125-.007812.65625.035157.980469"/><path fill="#80cc28" d="M20.96875 155.160156c-.257812.199219-.492188.425782-.703125.675782-.207031.25-.402344.515624-.5625.804687-.660156 1.144531-.890625 2.523437-.8125 3.863281.035156.671875.144531 1.339844.304687 1.988282.074219.324218.171876.644531.273438.960937.050781.15625.105469.3125.160156.464844.058594.152343.117188.300781.171875.449219l.042969.109374.054688.121094c.03125.078125.066406.15625.101562.234375.03125.078125.066406.15625.101562.234375l.09375.207032c.132813.292968.277344.578124.425782.855468.054687.101563.109375.199219.164062.296875.386719 16.09375 17.40625 14.867188 17.40625 14.867188l-.003906-.007813.003906.003906c-.011718-.011718-1.125-1.714843-2.652344-6.074218-2.992187-8.546875-9.734374-9.027344-13.816406-11.234375 1.980469 5.582031 11.375 13.820312 11.375 13.820312S24.382812 172.230469 21.171875 165.75l-.042969-.101562c-.03125-.078126-.0625-.15625-.09375-.234376-.035156-.082031-.066406-.160156-.097656-.238281l-.050781-.121093-.039063-.113282c-.054687-.148437-.109375-.300781-.164062-.449218-.046875-.15625-.097656-.316407-.148438-.472657-.09375-.316406-.183594-.640625-.253906-.964843-.140625-.652344-.234375-1.320313-.253906-1.996094-.046875-1.339844.21875-2.714844.902344-3.84375.167968-.285156.367187-.542969.582031-.789063.214843-.246093.457031-.46875.71875-.664062.261719-.191407.542969-.363281.839843-.5.296876-.136719.609376-.242188.933594-.316407.644532-.148437 1.328125-.152343 2.003906-.035156.492188.085938.976563.246094 1.449219.464844-.242187-.171875-.484375-.335938-.738281-.46875-.640625-.347656-1.3125-.585938-1.992188-.691406-.679687-.097656-1.363281-.082032-2.003906.085937-.320312.082031-.632812.191407-.925781.335938-.292969.144531-.570313.320312-.828125.523437"/><g clip-path="url(#a)"><path fill="#1c6434" d="M46.15625 138.625c-.300781-.125-.617188-.214844-.9375-.269531-.320312-.058594-.644531-.09375-.976562-.089844-1.316407 0-2.621094.488281-3.738282 1.226563-.5625.367187-1.082031.792968-1.5625 1.257812-.242187.230469-.46875.472656-.691406.714844-.105469.125-.214844.253906-.324219.375-.097656.125-.199219.25-.296875.375l-.074218.09375-.078126.101562c-.050781.070313-.101562.140625-.152343.207032-.050781.070312-.101563.140624-.152344.207031l-.128906.183593c-.183594.261719-.359375.53125-.523438.800782-.0625.09375-.117187.191406-.175781.289062-13.691406 8.382813-4.121094 22.566406-4.121094 22.566406l.003906-.003906-.003906.003906c.007813-.015624.917969-1.835937 3.917969-5.34375 5.875-6.871093 2.917969-12.976562 2.78125-17.625-3.824219 4.507813-6.230469 16.796876-6.230469 16.796876s.441406-10.363282 4.429688-16.394532l.066406-.089844c.050781-.066406.101562-.132812.15625-.199218.050781-.066406.101562-.136719.15625-.203125l.078125-.101563.078125-.09375c.101562-.121094.203125-.242187.308594-.367187.109375-.121094.21875-.242188.328125-.367188.230469-.238281.460937-.476562.707031-.699219.492188-.453124 1.023438-.867187 1.59375-1.21875 1.132812-.710937 2.449219-1.167968 3.769531-1.136718.328125 0 .652344.046875.972657.109375.316406.066406.632812.164062.929687.292969.296875.132812.582031.292968.851563.480468.265624.1875.511718.410156.738281.652344.453125.484375.792969 1.078125 1.035156 1.722656.167969.472656.273437.976563.324219 1.496094.023437-.296875.042968-.589844.03125-.878906-.015625-.726563-.152344-1.433594-.398438-2.074219-.253906-.640625-.613281-1.226563-1.074218-1.703125-.230469-.234375-.484376-.449219-.753907-.632812-.273437-.183594-.5625-.335938-.863281-.460938"/></g><path fill="#80cc28" d="M73.007812 152.257812c-.039062-.324218-.121093-.644531-.230468-.949218-.113282-.308594-.242188-.609375-.410156-.894532-.660157-1.144531-1.734376-2.035156-2.929688-2.636718-.597656-.304688-1.226562-.546875-1.867188-.730469-.320312-.097656-.640624-.171875-.964843-.242187-.160157-.03125-.324219-.0625-.484375-.09375-.15625-.023438-.3125-.046876-.472656-.074219l-.113282-.015625-.128906-.015625c-.085938-.007813-.171875-.019531-.253906-.027344-.085938-.011719-.171875-.023437-.253906-.03125l-.226563-.019531c-.316406-.03125-.636719-.046875-.949219-.058594-.113281-.003906-.226562-.003906-.339844-.003906-14.074218-7.714844-21.523437 7.699218-21.523437 7.699218h.003906-.003906c.015625 0 2.042969-.121093 6.566406.734376 8.867188 1.671874 12.652344-3.953126 16.597657-6.394532-5.804688-1.074218-17.609376 2.980469-17.609376 2.980469s9.160157-4.796875 16.355469-4.347656l.113281.015625c.082032.011718.167969.023437.25.035156.085938.011719.167969.023438.253907.035156l.128906.015625.117187.023438c.15625.027343.3125.054687.46875.082031.160157.035156.320313.070312.484376.105469.320312.078125.640624.160156.957031.265625.632812.199218 1.257812.453125 1.847656.773437 1.179687.628907 2.234375 1.546875 2.867187 2.707031.160157.285157.285157.589844.390626.902344.101562.308594.175781.628906.210937.953125.035156.324219.039063.65625.011719.980469-.03125.328125-.097656.652344-.195313.96875-.191406.636719-.53125 1.230469-.96875 1.761719-.324219.382812-.703125.726562-1.125 1.027343.265625-.121093.527344-.253906.769531-.410156.621094-.378906 1.164063-.847656 1.59375-1.382812.425782-.542969.75-1.144532.929688-1.785156.089844-.320313.148438-.644532.171875-.972657.019531-.328125.007813-.65625-.039063-.980469"/><g clip-path="url(#b)"><g clip-path="url(#c)"><g clip-path="url(#d)"><path fill="url(#e)" d="M84.121094 202.964844v14.046875h-72.59375v-14.046875Zm0 0"/></g></g></g><path fill="#036226" d="M237.039062 15.308594C183.890625 0 124.023438 11.480469 80.046875 44.917969L78.964844 46.9375c42.316406-.070312 84.199218 10.761719 122.328125 28.886719 10.253906-21.085938 22.820312-41.019531 35.746093-60.515625Zm0 0"/><g clip-path="url(#f)"><path fill="#036226" d="M287.007812 142.113281c14.371094 16.464844 26.71875 34.589844 37.191407 53.65625 14.730469-5.199219 29.96875-9.171875 45.492187-11.195312-.722656-8.953125-1.082031-17.90625-2.886718-26.644531-10.398438-63.835938-58.421876-119.585938-119.875-139.660157 16.105468 25.636719 32.714843 51.34375 43.402343 79.796875 4.332031 10.613282 1.875 34.445313-3.324219 44.046875Zm0 0"/></g><path fill="#036226" d="M205.769531 133.230469c7.148438 13.648437 22.457031 22.820312 37.984375 21.449219 21.878906-.503907 40.292969-22.3125 36.898438-43.90625-3.246094-15.164063-11.191406-28.8125-18.558594-42.242188C255.164062 57.625 249.097656 46 240.792969 36.035156c-13.503907 20.941406-27.585938 41.808594-36.394531 65.277344-4.1875 10.183594-3.609376 22.097656 1.371093 31.917969Zm14.441407-3.246094c6.5-.722656 12.78125 2.597656 14.15625 9.3125 9.820312 4.117187 21.15625 0 28.59375-7.003906-7.003907 12.78125-26.066407 15.453125-37.332032 6.859375-7.945312-5.34375-11.914062-15.308594-11.484375-24.695313 1.300781 5.488281 2.746094 10.976563 6.066407 15.527344ZM192.84375 231.800781c-.648438-1.515625-1.300781-3.03125-1.949219-4.546875-4.910156-10.832031-11.554687-20.652344-18.921875-29.824218-25.34375-32.710938-63.039062-55.53125-103.769531-62.609376-16.679687-3.03125-33.722656-2.238281-50.546875-1.515624-2.167969 3.898437-3.105469 8.304687-4.117188 12.636718-8.230468 36.613282-6.425781 76.113282 8.015626 111.425782 5.921874 14.511718 14.875 30.109374 25.636718 44.265624 0 0 47.875 73.367188 143.628906 67.519532l-1.082031-.507813c.433594.144531.867188.289063 1.082031.507813-19.28125-15.671875-36.609374-33.582032-52.570312-52.644532-17.257812-20.941406-32.785156-43.617187-43.109375-68.820312-2.816406-10.253906-7.4375-20.144531-7.292969-30.976562 3.394532 11.335937 8.304688 22.242187 15.164063 31.988281 25.636719 40.441406 61.8125 72.792969 98.570312 102.902343 11.265625-34.589843 9.605469-72.933593-3.324219-106.800781-1.804687-4.332031-3.609374-8.664062-5.414062-13Zm0 0"/><g clip-path="url(#g)"><path fill="#036226" d="M302.027344 228.335938c-4.691406 2.890624-9.242188 6.066406-13.644532 9.386718-2.527343 1.878906-4.984374 3.828125-7.441406 5.777344-32.277344 27.371094-53.796875 67.375-58.347656 109.476562 3.25-1.445312 6.5-3.035156 9.316406-5.199218 27.367188-20.65625 51.054688-45.785156 71.851563-72.9375-17.402344 37.261718-47.949219 66.363281-79.648438 91.710937 42.53125-8.375 81.527344-32.640625 107.882813-67.011719 21.449218-27.515624 34.15625-61.308593 37.046875-95.972656-20.582031 3.179688-40.871094 9.386719-59.070313 19.789063-2.601562 1.585937-5.273437 3.246093-7.945312 4.980469Zm0 0"/></g><path fill="#036226" d="M226.855469 279.679688v-.074219c1.011719-2.453125 17.332031-39.355469 69.683593-70.1875h.074219c1.371094-.867188 2.671875-1.734375 4.042969-2.601563l1.515625-.867187c2.3125-1.226563 4.625-2.382813 6.933594-3.464844-8.808594-16.898437-19.929688-32.566406-32.0625-47.226563-6.644531 4.402344-20.148438 10.6875-22.097657 11.265626-28.378906 9.675781-61.523437-11.699219-66.289062-40.945313-3.105469-12.566406 1.515625-25.058594 6.28125-36.539063-39.644531-21.085937-84.417969-31.628906-129.261719-32.136718-16.96875 16.105468-31.050781 35.3125-40.871093 56.542968 39.355468-2.527343 79.363281 7.148438 112.941406 27.945313 29.96875 18.414063 54.304687 45.351563 70.40625 76.476563 1.300781 2.382812 2.457031 4.835937 3.609375 7.363281.867187 2.238281 1.664062 4.550781 2.527343 6.789062.652344 1.734375 1.300782 3.394531 1.953126 5.125 5.632812 13.578125 8.589843 28.09375 10.613281 42.535157 0 .070312 0 0 0 0Zm0 0"/></svg>